<svg width="32" height="32" viewBox="0 0 32 32" fill="none" xmlns="http://www.w3.org/2000/svg">
<path d="M26.845 24.2001C25.9502 21.8165 24.2911 19.8103 22.1688 18.4724C21.5328 18.0714 20.7073 18.1365 20.1426 18.6339L20.1425 18.6339C19.0025 19.638 17.6065 20.2242 16.1021 20.2242C14.568 20.2242 13.1467 19.6153 11.9944 18.5748L11.9943 18.5747C11.436 18.0709 10.6142 17.995 9.97301 18.3868C7.78369 19.7237 6.07001 21.7641 5.15489 24.1993L5.15488 24.1993C4.90374 24.8678 5.06133 25.6223 5.55853 26.1346L5.55862 26.1347C8.20506 28.8603 11.9081 30.5576 16 30.5576C20.0917 30.5576 23.7948 28.8603 26.4409 26.1349C26.9382 25.6226 27.0961 24.869 26.845 24.2001ZM26.845 24.2001L26.3769 24.3758M26.845 24.2001C26.845 24.2001 26.845 24.2001 26.845 24.2001L26.3769 24.3758M26.3769 24.3758C26.5599 24.8634 26.4449 25.413 26.0822 25.7866C23.526 28.4194 19.9506 30.0576 16 30.0576C12.0492 30.0576 8.47385 28.4194 5.91734 25.7864L11.6593 18.9459C12.8923 20.0592 14.4299 20.7242 16.1021 20.7242C17.7419 20.7242 19.2525 20.084 20.473 19.0091C20.8711 18.6586 21.4535 18.6125 21.9021 18.8954C23.9337 20.176 25.521 22.0962 26.3769 24.3758ZM0.5 16C0.5 7.45374 7.45366 0.5 16 0.5C24.5465 0.5 31.5 7.45374 31.5 16C31.5 24.5464 24.5465 31.5 16 31.5C7.45365 31.5 0.5 24.5464 0.5 16ZM22.5525 12.0554C22.5525 7.97863 19.7392 4.528 16.1022 4.528C12.4652 4.528 9.65227 7.97867 9.65227 12.0554C9.65227 16.1313 12.4652 19.5832 16.1022 19.5832C19.7393 19.5832 22.5525 16.1314 22.5525 12.0554Z" fill="black" stroke="black"/>
</svg>
